<?xml version="1.0" encoding="iso-8859-1"?>
<!-- Generator: Adobe Illustrator 19.0.0, SVG Export Plug-In . SVG Version: 6.00 Build 0)  -->
<svg version="1.1" id="Layer_1" xmlns="http://www.w3.org/2000/svg" xmlns:xlink="http://www.w3.org/1999/xlink" x="0px" y="0px"
	 viewBox="0 0 384 384" style="enable-background:new 0 0 384 384;" xml:space="preserve">
<g>
	<g>
		<path d="M368,72v-0.4H175.6c-8.8,0-20.8-4.8-27.2-11.2l-9.2-9.2c-6-6-18.4-11.2-27.2-11.2H24C10.8,40,0,50.8,0,64v264
			c0,8.8,7.2,16,16,16h352c8.8,0,16-7.2,16-16V88C384,79.2,376.8,72,368,72z M376,328c0,4.4-3.6,8-8,8H16c-4.4,0-8-3.6-8-8V64
			c0-8.8,7.2-16,16-16h88c6.8,0,16.8,4.4,22,9.2l9.2,9.2C150.8,74,165.2,80,176,80h192c4.4,0,8,3.6,8,8V328z"/>
	</g>
</g>
<g>
	<g>
		<path d="M364,96H20c-8.8,0-16,7.2-16,16h2h2c0-6.8,5.2-12,12-12h344c6.8,0,12,5.2,12,12h2h2C380,103.2,372.8,96,364,96z"/>
	</g>
</g>
<g>
	<g>
		<path d="M275.6,203.2c-5.2,0-19.2,0.8-19.2,0.8s14-4.8,18.4-6.4c-5.2-30.4-31.6-53.6-63.2-53.6c-30.4,0-56,21.6-62.4,50
			c-0.8,4.8-1.2,8-1.2,8s-2.8-8-5.2-8c-22,0-39.2,15.2-43.2,34c-0.8,5.6-2.4,12.8-2.4,12.8S94,228,93.2,228
			C76.8,229.2,64,243.2,64,260c0,17.6,14.4,32,32,32h179.6c24.4,0,44.4-20,44.4-44.4C320,223.2,300.4,203.2,275.6,203.2z"/>
	</g>
</g>
<g>
</g>
<g>
</g>
<g>
</g>
<g>
</g>
<g>
</g>
<g>
</g>
<g>
</g>
<g>
</g>
<g>
</g>
<g>
</g>
<g>
</g>
<g>
</g>
<g>
</g>
<g>
</g>
<g>
</g>
</svg>
